# xmcd CD database file
#
# Track frame offsets:
#	150
#	2363
#	5588
#	11614
#	30953
#	44721
#	51888
#	57061
#	62028
#	72621
#	90849
#	105353
#	122381
#	123961
#	141636
#	160112
#	168756
#	172974
#	179261
#	181881
#	186583
#	204326
#	206061
#	208798
#	224352
#	229405
#	248465
#
# Disc length: 3602 seconds
#
# Revision: 0
# Processed by: cddbd v1.5.2PL0 Copyright (c) Steve Scherf et al.
# Submitted via: CDex 2.23
#
DISCID=6f0e101b
DTITLE=DJ Hatamototaikutsuotoko -  Jap's Various Artists 
DYEAR=2008
DGENRE=Jazz
TTITLE0=Suzuki Isao - Aquamarine
TTITLE1=Takakura Ken - Abashiri Bangaichi OST Dialogue
TTITLE2=Sadistic Mika Band - Kaiketsu Silver Child
TTITLE3=Kawasaki Ryo - Raisins
TTITLE4=Takanaka Masayoshi - Soon
TTITLE5=Takanaka Masayoshi - Sun Drops
TTITLE6=Iwasaki Hiromi - Biyaku
TTITLE7=Minami Yoshitaka - Monroe Walk
TTITLE8=Sibato Hatsumi - Red Scandal
TTITLE9=Masuda Mikio - Corazon
TTITLE10=Ohnuki Taeko - Carnaval
TTITLE11=Yellow Magic Orchestra - La Femme Chinoise
TTITLE12=Godiego - A Face In The Crowd
TTITLE13=Godiego - The Birth Of The Odyssey Monkey Magic
TTITLE14=Sadistic Mika Band - Funky Mahjong
TTITLE15=Unknown Artist - OST Umi No Toriton
TTITLE16=Unknown Artist - OST Taiyou Ni Hoero 76
TTITLE17=Ohno Katsuo - Ojyousan Oteageda
TTITLE18=Garo (2) - Gakuseigai No Kissaten
TTITLE19=Yanagi George - Dream Racer 1
TTITLE20=Yanagi George - Theme From Matsuri Bayashi Ga Kikoeru
TTITLE21=Unknown Artist - OST Ideon
TTITLE22=Unknown Artist - OST Lupin The 3rd
TTITLE23=Unknown Artist - OST Otokotachi No Tabiji
TTITLE24=Crystal King - Daitokai
TTITLE25=Joe Yamanaka - The Main Theme From Proof Of The Man
TTITLE26=Ogura Kei - Itosugi No Aru Fukei
EXTD=YEAR: 2008
EXTT0=
EXTT1=
EXTT2=
EXTT3=
EXTT4=
EXTT5=
EXTT6=
EXTT7=
EXTT8=
EXTT9=
EXTT10=
EXTT11=
EXTT12=
EXTT13=
EXTT14=
EXTT15=
EXTT16=
EXTT17=
EXTT18=
EXTT19=
EXTT20=
EXTT21=
EXTT22=
EXTT23=
EXTT24=
EXTT25=
EXTT26=
PLAYORDER=
